<svg xmlns="http://www.w3.org/2000/svg" viewBox="0 0 960 540">
  <rect width="960" height="540" fill="#f7fbfb"/>
  <text x="26" y="46" font-family="Arial,'Microsoft YaHei'" font-size="26" font-weight="700" fill="#173b56">1F 门诊楼平面图</text>
  <rect x="24" y="66" width="66" height="36" rx="8" fill="#27aa91"/><text x="43" y="91" font-size="22" font-weight="700" fill="#fff">1F</text>
  <rect x="80" y="130" width="790" height="320" rx="6" fill="#fff" stroke="#ccdce2" stroke-width="2"/>
  <rect x="120" y="355" width="130" height="70" rx="12" fill="#ddf5ef" stroke="#35ad94"/><text x="164" y="396" font-size="22" font-weight="700" fill="#0c806c">入口</text>
  <rect x="295" y="315" width="160" height="90" rx="18" fill="#e5f7f2" stroke="#35ad94"/><text x="334" y="368" font-size="22" font-weight="700" fill="#0c806c">导诊台</text>
  <rect x="490" y="320" width="120" height="88" rx="8" fill="#eef3f6" stroke="#a9bdc8"/><text x="525" y="371" font-size="20" font-weight="700" fill="#29485e">电梯</text>
  <rect x="120" y="150" width="190" height="90" rx="8" fill="#ffecec" stroke="#ef9b9b"/><text x="174" y="203" font-size="22" font-weight="700" fill="#bf4a4a">急诊科</text>
  <rect x="350" y="150" width="190" height="90" rx="8" fill="#fff4df" stroke="#f0bd67"/><text x="392" y="203" font-size="22" font-weight="700" fill="#b67215">发热门诊</text>
  <rect x="580" y="150" width="190" height="90" rx="8" fill="#eef8ff" stroke="#9bc6df"/><text x="632" y="203" font-size="22" font-weight="700" fill="#267098">感染科</text>
  <rect x="625" y="320" width="190" height="88" rx="8" fill="#fff8e8" stroke="#e7c77f"/><text x="664" y="371" font-size="22" font-weight="700" fill="#a87512">药房/缴费</text>
  <path d="M185 355 V285 H445 V240 H675" fill="none" stroke="#1aa98f" stroke-width="8" stroke-dasharray="14 10" stroke-linecap="round"/>
  <polygon points="675,240 655,228 655,252" fill="#1aa98f"/>
  <circle cx="185" cy="355" r="18" fill="#1aa98f"/><circle cx="185" cy="355" r="7" fill="#fff"/>
  <rect x="820" y="86" width="112" height="360" rx="14" fill="#fff" stroke="#e3edf1"/>
  <text x="846" y="125" font-size="18" font-weight="700" fill="#173b56">导航信息</text>
  <text x="846" y="168" font-size="14" fill="#607487">入口 → 导诊台</text>
  <text x="846" y="206" font-size="14" fill="#607487">按指示前往</text>
  <text x="846" y="244" font-size="14" fill="#607487">目标诊区</text>
</svg>
