<svg xmlns="http://www.w3.org/2000/svg" viewBox="0 0 960 540">
  <rect width="960" height="540" fill="#f7fbfb"/>
  <text x="26" y="46" font-family="Arial,'Microsoft YaHei'" font-size="26" font-weight="700" fill="#173b56">5F 门诊楼平面图</text>
  <rect x="24" y="66" width="66" height="36" rx="8" fill="#27aa91"/><text x="43" y="91" font-size="22" font-weight="700" fill="#fff">5F</text>
  <rect x="80" y="110" width="790" height="345" rx="6" fill="#fff" stroke="#ccdce2" stroke-width="2"/>
  <rect x="110" y="135" width="150" height="82" rx="8" fill="#ddf5ef" stroke="#35ad94"/><text x="164" y="184" font-size="20" font-weight="700" fill="#0c806c">骨科</text>
  <rect x="285" y="135" width="150" height="82" rx="8" fill="#eef8ff" stroke="#9bc6df"/><text x="338" y="184" font-size="20" font-weight="700" fill="#267098">皮肤科</text>
  <rect x="460" y="135" width="150" height="82" rx="8" fill="#eef8ff" stroke="#9bc6df"/><text x="488" y="184" font-size="20" font-weight="700" fill="#267098">风湿免疫科</text>
  <rect x="635" y="135" width="150" height="82" rx="8" fill="#eef8ff" stroke="#9bc6df"/><text x="663" y="184" font-size="20" font-weight="700" fill="#267098">康复医学科</text>
  <rect x="520" y="285" width="180" height="78" rx="8" fill="#eef8ff" stroke="#9bc6df"/><text x="556" y="332" font-size="20" font-weight="700" fill="#267098">精神心理科</text>
  <rect x="160" y="285" width="300" height="70" rx="12" fill="#f3f7fb" stroke="#d4dfe8"/><text x="258" y="328" font-size="22" font-weight="700" fill="#29485e">候诊区</text>
  <rect x="120" y="380" width="130" height="50" rx="8" fill="#eef3f6" stroke="#a9bdc8"/><text x="162" y="412" font-size="18" font-weight="700" fill="#29485e">电梯</text>
  <path d="M185 380 V320 H335 V218 H185" fill="none" stroke="#1aa98f" stroke-width="8" stroke-dasharray="14 10" stroke-linecap="round"/>
  <polygon points="185,218 205,206 205,230" fill="#1aa98f"/>
  <circle cx="185" cy="380" r="18" fill="#1aa98f"/><circle cx="185" cy="380" r="7" fill="#fff"/>
  <rect x="820" y="86" width="112" height="360" rx="14" fill="#fff" stroke="#e3edf1"/>
  <text x="846" y="125" font-size="18" font-weight="700" fill="#173b56">导航信息</text>
  <text x="846" y="168" font-size="14" fill="#607487">电梯到达5F</text>
  <text x="846" y="206" font-size="14" fill="#607487">经候诊区</text>
  <text x="846" y="244" font-size="14" fill="#607487">到达目标诊室</text>
</svg>
